<svg xmlns="http://www.w3.org/2000/svg" xmlns:xlink="http://www.w3.org/1999/xlink" width="50" zoomAndPan="magnify" viewBox="0 0 37.5 37.499999" height="50" preserveAspectRatio="xMidYMid meet" version="1.0"><defs><clipPath id="a455443e68"><path d="M 0 0.300781 L 37.007812 0.300781 L 37.007812 37.007812 L 0 37.007812 Z M 0 0.300781 " clip-rule="nonzero"/></clipPath></defs><g clip-path="url(#a455443e68)"><path fill="#e50012" d="M 18.503906 37.304688 C 28.695312 37.304688 37.007812 28.996094 37.007812 18.804688 C 37.007812 8.613281 28.695312 0.300781 18.503906 0.300781 C 8.3125 0.300781 0 8.609375 0 18.804688 C 0 28.996094 8.3125 37.304688 18.503906 37.304688 Z M 18.503906 37.304688 " fill-opacity="1" fill-rule="evenodd"/></g><path fill="#fefefe" d="M 11.832031 7.269531 C 12.414062 7.933594 12.917969 8.621094 13.328125 9.328125 C 14.035156 10.554688 14.457031 12.023438 14.589844 13.742188 L 14.316406 13.898438 C 13.085938 14.609375 13.5625 16.859375 15.742188 20.640625 C 18 24.546875 19.75 26.140625 21.003906 25.417969 L 21.277344 25.257812 C 22.757812 26.140625 23.867188 27.222656 24.601562 28.496094 C 25.027344 29.238281 25.3125 30.054688 25.457031 30.949219 C 19.101562 33.332031 15.179688 27.625 12.292969 22.621094 C 9.320312 17.476562 6.523438 11.714844 11.832031 7.269531 Z M 12.394531 6.945312 L 13.007812 6.59375 C 13.78125 6.144531 14.414062 6.003906 14.898438 6.160156 C 15.382812 6.316406 15.882812 6.84375 16.394531 7.734375 C 17.828125 10.214844 17.636719 11.984375 15.820312 13.03125 L 15.242188 13.367188 C 15.191406 11.789062 14.765625 10.3125 13.976562 8.949219 C 13.527344 8.167969 13 7.503906 12.394531 6.945312 Z M 21.996094 24.847656 L 22.460938 24.574219 C 23.480469 23.988281 24.386719 23.851562 25.183594 24.175781 C 25.976562 24.5 26.753906 25.3125 27.503906 26.609375 C 28.039062 27.539062 28.25 28.25 28.132812 28.753906 C 28.011719 29.261719 27.519531 29.761719 26.65625 30.257812 L 26.105469 30.574219 C 25.894531 29.554688 25.597656 28.707031 25.210938 28.039062 C 24.449219 26.722656 23.378906 25.660156 21.996094 24.847656 Z M 21.996094 24.847656 " fill-opacity="1" fill-rule="evenodd"/></svg>