<svg xmlns="http://www.w3.org/2000/svg" xmlns:xlink="http://www.w3.org/1999/xlink" width="50" zoomAndPan="magnify" viewBox="0 0 37.5 37.499999" height="50" preserveAspectRatio="xMidYMid meet" version="1.0"><defs><clipPath id="78e00dd021"><path d="M 0.496094 0 L 36.761719 0 L 36.761719 36.265625 L 0.496094 36.265625 Z M 0.496094 0 " clip-rule="nonzero"/></clipPath></defs><g clip-path="url(#78e00dd021)"><path fill="#000000" d="M 18.628906 0 C 8.628906 0 0.496094 8.132812 0.496094 18.132812 C 0.496094 28.132812 8.628906 36.265625 18.628906 36.265625 C 28.628906 36.265625 36.761719 28.132812 36.761719 18.132812 C 36.761719 8.132812 28.628906 0 18.628906 0 Z M 18.628906 34.996094 C 9.320312 34.996094 1.769531 27.445312 1.769531 18.132812 C 1.769531 8.824219 9.320312 1.273438 18.628906 1.273438 C 27.941406 1.273438 35.492188 8.824219 35.492188 18.132812 C 35.492188 27.445312 27.941406 34.996094 18.628906 34.996094 Z M 18.628906 34.996094 " fill-opacity="1" fill-rule="nonzero"/></g><path fill="#000000" d="M 27.761719 12.292969 L 21.621094 18.132812 L 27.761719 23.976562 C 27.925781 23.75 28.03125 23.5 28.074219 23.226562 L 28.074219 13.039062 C 28.03125 12.765625 27.925781 12.515625 27.761719 12.292969 Z M 27.761719 12.292969 " fill-opacity="1" fill-rule="nonzero"/><path fill="#000000" d="M 18.628906 20.980469 L 16.105469 18.574219 L 9.96875 24.414062 C 10.257812 24.601562 10.574219 24.695312 10.921875 24.695312 L 26.339844 24.695312 C 26.683594 24.695312 27.003906 24.601562 27.289062 24.414062 L 21.15625 18.574219 Z M 18.628906 20.980469 " fill-opacity="1" fill-rule="nonzero"/><path fill="#000000" d="M 9.5 12.292969 C 9.335938 12.515625 9.230469 12.765625 9.183594 13.039062 L 9.183594 23.226562 C 9.230469 23.5 9.335938 23.75 9.5 23.976562 L 15.640625 18.132812 Z M 9.5 12.292969 " fill-opacity="1" fill-rule="nonzero"/><path fill="#000000" d="M 16.105469 17.691406 L 18.628906 20.101562 L 27.289062 11.855469 C 27.003906 11.664062 26.683594 11.570312 26.339844 11.570312 L 10.921875 11.570312 C 10.574219 11.570312 10.257812 11.664062 9.96875 11.855469 Z M 16.105469 17.691406 " fill-opacity="1" fill-rule="nonzero"/></svg>