<svg xmlns="http://www.w3.org/2000/svg" xmlns:xlink="http://www.w3.org/1999/xlink" width="900" zoomAndPan="magnify" viewBox="0 0 675 675.000002" height="900" preserveAspectRatio="xMidYMid meet" version="1.0"><defs><clipPath id="294cfecfed"><path d="M 34.449219 381 L 653.78125 381 L 653.78125 674 L 34.449219 674 Z M 34.449219 381 " clip-rule="nonzero"/></clipPath></defs><path fill="#f9c2ae" d="M 382.484375 145.273438 C 380.4375 165.222656 360.996094 170.339844 360.996094 170.339844 C 318.023438 151.925781 298.582031 108.957031 298.582031 108.957031 C 291.4375 125.394531 278.175781 139.207031 263.941406 150.226562 C 246.996094 163.34375 237.195312 183.65625 237.195312 205.082031 L 237.195312 255.757812 C 237.195312 314.800781 285.0625 362.664062 344.113281 362.664062 C 403.164062 362.664062 451.03125 314.800781 451.03125 255.757812 L 451.03125 207.109375 C 451.03125 192.339844 441.402344 179.257812 427.273438 174.960938 C 392.714844 164.445312 382.480469 145.273438 382.480469 145.273438 Z M 382.484375 145.273438 " fill-opacity="1" fill-rule="nonzero"/><path fill="#f9c2ae" d="M 414.613281 338.421875 L 277.160156 338.421875 L 258.132812 391.386719 L 333.753906 454.242188 C 335.964844 456.078125 338.75 457.085938 341.628906 457.085938 L 346.597656 457.085938 C 349.476562 457.085938 352.261719 456.078125 354.472656 454.242188 L 430.09375 391.386719 Z M 414.613281 338.421875 " fill-opacity="1" fill-rule="nonzero"/><path fill="#a5bc96" d="M 611.125 496.226562 C 605.921875 471.769531 588.855469 451.515625 565.628906 442.238281 L 429.003906 387.660156 L 430.09375 391.382812 L 354.472656 454.238281 C 352.261719 456.078125 349.476562 457.085938 346.597656 457.085938 L 341.628906 457.085938 C 338.75 457.085938 335.96875 456.078125 333.753906 454.238281 L 258.132812 391.382812 L 259.511719 387.542969 L 122.597656 442.238281 C 99.371094 451.515625 82.304688 471.769531 77.101562 496.226562 L 40.53125 668.105469 L 647.695312 668.105469 Z M 611.125 496.226562 " fill-opacity="1" fill-rule="nonzero"/><path fill="#6d6d6d" d="M 451.035156 212.042969 L 468.152344 212.042969 C 468.722656 212.042969 469.277344 212.085938 469.828125 212.152344 L 469.828125 174.730469 C 469.828125 105.347656 413.574219 49.101562 344.179688 49.101562 C 274.785156 49.101562 218.53125 105.347656 218.53125 174.730469 L 218.53125 212.136719 C 219.039062 212.078125 219.554688 212.042969 220.074219 212.042969 L 237.195312 212.042969 L 237.195312 205.082031 C 237.195312 183.65625 246.996094 163.347656 263.941406 150.226562 C 278.175781 139.210938 291.4375 125.394531 298.585938 108.957031 C 298.585938 108.957031 318.023438 151.925781 360.996094 170.339844 C 360.996094 170.339844 380.4375 165.222656 382.484375 145.277344 C 382.484375 145.277344 392.71875 164.445312 427.273438 174.960938 C 441.40625 179.257812 451.035156 192.339844 451.035156 207.109375 Z M 451.035156 212.042969 " fill-opacity="1" fill-rule="nonzero"/><path fill="#f1ebe8" d="M 428.78125 387.546875 L 430.160156 391.386719 L 354.539062 454.242188 C 352.328125 456.078125 349.539062 457.085938 346.664062 457.085938 L 341.628906 457.085938 C 338.753906 457.085938 335.96875 456.078125 333.753906 454.242188 L 258.132812 391.386719 L 259.511719 387.546875 L 216.222656 404.839844 L 326.433594 496.324219 C 329.914062 499.214844 334.296875 500.792969 338.816406 500.792969 L 349.472656 500.792969 C 353.996094 500.792969 358.375 499.214844 361.855469 496.324219 L 472.070312 404.839844 L 428.777344 387.546875 Z M 428.78125 387.546875 " fill-opacity="1" fill-rule="nonzero"/><path fill="#250b48" d="M 346.601562 462.910156 L 341.628906 462.910156 C 337.402344 462.910156 333.28125 461.421875 330.03125 458.71875 L 254.410156 395.863281 C 252.53125 394.296875 251.824219 391.722656 252.652344 389.414062 L 271.679688 336.453125 C 272.765625 333.425781 276.109375 331.855469 279.128906 332.941406 C 282.15625 334.027344 283.730469 337.363281 282.640625 340.390625 L 264.996094 389.515625 L 337.480469 449.761719 C 338.640625 450.730469 340.117188 451.261719 341.628906 451.261719 L 346.601562 451.261719 C 348.113281 451.261719 349.585938 450.730469 350.75 449.761719 L 423.429688 389.351562 L 409.023438 340.054688 C 408.121094 336.96875 409.894531 333.734375 412.980469 332.832031 C 416.0625 331.925781 419.304688 333.703125 420.203125 336.789062 L 435.683594 389.75 C 436.335938 391.976562 435.601562 394.378906 433.816406 395.863281 L 358.195312 458.71875 C 354.945312 461.421875 350.824219 462.910156 346.597656 462.910156 Z M 346.601562 462.910156 " fill-opacity="1" fill-rule="nonzero"/><g clip-path="url(#294cfecfed)"><path fill="#250b48" d="M 647.695312 673.929688 L 40.53125 673.929688 C 38.773438 673.929688 37.113281 673.136719 36.007812 671.769531 C 34.898438 670.40625 34.46875 668.613281 34.835938 666.894531 L 71.40625 495.015625 C 77.027344 468.601562 95.355469 446.851562 120.4375 436.832031 L 257.355469 382.136719 C 259.480469 381.285156 261.910156 381.761719 263.558594 383.355469 C 265.210938 384.945312 265.773438 387.355469 264.996094 389.515625 C 264.996094 389.515625 337.480469 449.761719 337.480469 449.761719 C 338.640625 450.730469 340.117188 451.261719 341.628906 451.261719 L 346.601562 451.261719 C 348.113281 451.261719 349.585938 450.730469 350.75 449.761719 L 423.429688 389.351562 L 423.414062 389.296875 C 422.789062 387.15625 423.4375 384.847656 425.089844 383.351562 C 426.738281 381.855469 429.09375 381.425781 431.167969 382.253906 L 567.792969 436.828125 C 592.875 446.847656 611.203125 468.601562 616.824219 495.015625 L 653.394531 666.894531 C 653.757812 668.613281 653.332031 670.40625 652.222656 671.769531 C 651.117188 673.136719 649.453125 673.929688 647.695312 673.929688 Z M 47.726562 662.285156 L 640.503906 662.285156 L 605.429688 497.441406 C 600.621094 474.835938 584.933594 456.21875 563.46875 447.644531 L 433.824219 395.859375 C 433.824219 395.859375 433.820312 395.863281 433.816406 395.863281 L 358.199219 458.71875 C 354.945312 461.421875 350.828125 462.910156 346.601562 462.910156 L 341.628906 462.910156 C 337.402344 462.910156 333.28125 461.421875 330.03125 458.71875 L 254.410156 395.863281 C 254.410156 395.863281 254.410156 395.859375 254.40625 395.859375 L 124.761719 447.644531 C 103.296875 456.222656 87.609375 474.835938 82.796875 497.441406 Z M 47.726562 662.285156 " fill-opacity="1" fill-rule="nonzero"/></g><path fill="#250b48" d="M 344.113281 368.484375 C 281.945312 368.484375 231.371094 317.914062 231.371094 255.757812 L 231.371094 205.082031 C 231.371094 181.910156 242.210938 159.679688 260.375 145.621094 C 276.292969 133.296875 287.351562 120.179688 293.242188 106.632812 C 294.160156 104.523438 296.238281 103.148438 298.539062 103.132812 L 298.582031 103.132812 C 300.871094 103.132812 302.945312 104.472656 303.890625 106.554688 C 304.070312 106.953125 322.378906 146.363281 361.273438 164.09375 C 365.410156 162.453125 375.402344 157.230469 376.6875 144.679688 C 376.949219 142.128906 378.84375 140.050781 381.359375 139.558594 C 383.863281 139.070312 386.386719 140.257812 387.601562 142.492188 C 387.792969 142.835938 397.667969 159.863281 428.96875 169.386719 C 445.652344 174.460938 456.859375 189.621094 456.859375 207.105469 L 456.859375 255.757812 C 456.859375 317.914062 406.28125 368.484375 344.113281 368.484375 Z M 298.6875 121.351562 C 291.574219 133.0625 281.128906 144.285156 267.503906 154.832031 C 252.171875 166.703125 243.019531 185.484375 243.019531 205.082031 L 243.019531 255.757812 C 243.019531 311.496094 288.371094 356.839844 344.113281 356.839844 C 399.859375 356.839844 445.210938 311.496094 445.210938 255.757812 L 445.210938 207.109375 C 445.210938 194.78125 437.320312 184.101562 425.578125 180.53125 C 404.683594 174.171875 392.046875 164.703125 384.980469 157.617188 C 378.058594 171.695312 363.25 175.765625 362.480469 175.96875 C 361.222656 176.300781 359.894531 176.199219 358.703125 175.691406 C 326.722656 161.984375 307.367188 135.746094 298.6875 121.351562 Z M 382.480469 145.273438 L 382.492188 145.273438 Z M 382.480469 145.273438 " fill-opacity="1" fill-rule="nonzero"/><path fill="#8595b3" d="M 204.390625 212.042969 L 237.195312 212.042969 L 237.195312 288.320312 C 237.195312 297.523438 229.722656 304.992188 220.519531 304.992188 L 215.867188 304.992188 C 201.71875 304.992188 190.234375 293.507812 190.234375 279.359375 L 190.234375 226.199219 C 190.234375 218.382812 196.578125 212.042969 204.390625 212.042969 Z M 204.390625 212.042969 " fill-opacity="1" fill-rule="nonzero"/><path fill="#8595b3" d="M 472.363281 304.992188 L 467.707031 304.992188 C 458.507812 304.992188 451.035156 297.523438 451.035156 288.320312 L 451.035156 212.042969 L 483.839844 212.042969 C 491.652344 212.042969 497.996094 218.386719 497.996094 226.199219 L 497.996094 279.359375 C 497.996094 293.507812 486.511719 304.992188 472.363281 304.992188 Z M 472.363281 304.992188 " fill-opacity="1" fill-rule="nonzero"/><path fill="#250b48" d="M 220.523438 310.816406 L 215.867188 310.816406 C 198.519531 310.816406 184.40625 296.703125 184.40625 279.359375 L 184.40625 226.199219 C 184.40625 215.179688 193.371094 206.21875 204.390625 206.21875 L 237.195312 206.21875 C 240.410156 206.21875 243.019531 208.824219 243.019531 212.042969 L 243.019531 288.320312 C 243.019531 300.726562 232.925781 310.816406 220.523438 310.816406 Z M 204.390625 217.863281 C 199.796875 217.863281 196.054688 221.601562 196.054688 226.199219 L 196.054688 279.359375 C 196.054688 290.28125 204.941406 299.167969 215.867188 299.167969 L 220.519531 299.167969 C 226.503906 299.167969 231.371094 294.300781 231.371094 288.320312 L 231.371094 217.863281 Z M 204.390625 217.863281 " fill-opacity="1" fill-rule="nonzero"/><path fill="#250b48" d="M 472.363281 310.816406 L 467.707031 310.816406 C 455.300781 310.816406 445.210938 300.726562 445.210938 288.320312 L 445.210938 212.039062 C 445.210938 208.824219 447.816406 206.21875 451.035156 206.21875 L 483.835938 206.21875 C 494.855469 206.21875 503.820312 215.179688 503.820312 226.199219 L 503.820312 279.359375 C 503.820312 296.703125 489.707031 310.8125 472.363281 310.8125 Z M 456.859375 217.863281 L 456.859375 288.320312 C 456.859375 294.300781 461.726562 299.167969 467.707031 299.167969 L 472.363281 299.167969 C 483.285156 299.167969 492.171875 290.28125 492.171875 279.359375 L 492.171875 226.199219 C 492.171875 221.605469 488.433594 217.863281 483.835938 217.863281 Z M 456.859375 217.863281 " fill-opacity="1" fill-rule="nonzero"/><path fill="#250b48" d="M 469.828125 217.976562 C 469.597656 217.976562 469.363281 217.960938 469.132812 217.933594 C 468.734375 217.886719 468.425781 217.863281 468.152344 217.863281 L 451.035156 217.863281 C 447.816406 217.863281 445.210938 215.257812 445.210938 212.042969 L 445.210938 207.109375 C 445.210938 194.785156 437.320312 184.101562 425.578125 180.53125 C 404.683594 174.171875 392.046875 164.703125 384.980469 157.617188 C 378.054688 171.695312 363.25 175.769531 362.476562 175.96875 C 361.222656 176.300781 359.894531 176.203125 358.699219 175.691406 C 326.71875 161.988281 307.363281 135.746094 298.683594 121.355469 C 291.574219 133.0625 281.125 144.289062 267.503906 154.832031 C 252.171875 166.703125 243.015625 185.488281 243.015625 205.082031 L 243.015625 212.042969 C 243.015625 215.257812 240.410156 217.867188 237.191406 217.867188 L 220.074219 217.867188 C 219.804688 217.867188 219.511719 217.882812 219.175781 217.921875 C 217.53125 218.105469 215.878906 217.578125 214.644531 216.476562 C 213.410156 215.371094 212.703125 213.792969 212.703125 212.132812 L 212.703125 174.730469 C 212.703125 102.246094 271.683594 43.277344 344.175781 43.277344 C 416.671875 43.277344 475.652344 102.246094 475.652344 174.730469 L 475.652344 212.15625 C 475.652344 213.820312 474.9375 215.40625 473.691406 216.511719 C 472.621094 217.460938 471.246094 217.976562 469.828125 217.976562 Z M 456.847656 206.21875 L 464.003906 206.21875 L 464.003906 174.730469 C 464.003906 108.667969 410.25 54.921875 344.179688 54.921875 C 278.105469 54.921875 224.351562 108.667969 224.351562 174.730469 L 224.351562 206.21875 L 231.371094 206.21875 L 231.371094 205.082031 C 231.371094 181.910156 242.210938 159.679688 260.375 145.621094 C 276.292969 133.296875 287.351562 120.179688 293.242188 106.632812 C 294.160156 104.523438 296.238281 103.148438 298.539062 103.132812 L 298.582031 103.132812 C 300.871094 103.132812 302.945312 104.472656 303.890625 106.554688 C 304.070312 106.953125 322.378906 146.363281 361.273438 164.09375 C 365.410156 162.453125 375.398438 157.230469 376.6875 144.679688 C 376.949219 142.128906 378.84375 140.050781 381.359375 139.558594 C 383.875 139.066406 386.414062 140.269531 387.621094 142.53125 C 387.695312 142.664062 397.511719 159.816406 428.96875 169.386719 C 445.367188 174.375 456.476562 189.105469 456.847656 206.214844 Z M 456.847656 206.21875 " fill-opacity="1" fill-rule="nonzero"/><path fill="#250b48" d="M 349.472656 506.617188 L 338.816406 506.617188 C 332.949219 506.617188 327.230469 504.550781 322.714844 500.804688 L 212.5 409.320312 C 210.921875 408.007812 210.148438 405.960938 210.46875 403.929688 C 210.785156 401.902344 212.152344 400.191406 214.058594 399.429688 L 257.351562 382.136719 C 259.476562 381.285156 261.910156 381.761719 263.558594 383.355469 C 265.207031 384.945312 265.769531 387.355469 264.992188 389.515625 C 264.992188 389.515625 337.476562 449.761719 337.476562 449.761719 C 338.640625 450.730469 340.113281 451.261719 341.628906 451.261719 L 346.664062 451.261719 C 348.175781 451.261719 349.652344 450.730469 350.8125 449.761719 L 423.296875 389.515625 C 422.523438 387.355469 423.085938 384.945312 424.734375 383.355469 C 426.382812 381.761719 428.8125 381.285156 430.941406 382.136719 L 474.230469 399.429688 C 476.140625 400.191406 477.503906 401.902344 477.824219 403.929688 C 478.140625 405.960938 477.371094 408.007812 475.789062 409.320312 L 365.578125 500.804688 C 361.0625 504.550781 355.34375 506.617188 349.472656 506.617188 Z M 227.480469 406.613281 L 330.15625 491.84375 C 332.585938 493.859375 335.660156 494.96875 338.820312 494.96875 L 349.476562 494.96875 C 352.632812 494.96875 355.707031 493.859375 358.136719 491.84375 L 460.816406 406.613281 L 433.890625 395.859375 C 433.890625 395.859375 433.886719 395.863281 433.882812 395.863281 L 358.261719 458.71875 C 355.011719 461.421875 350.890625 462.910156 346.664062 462.910156 L 341.628906 462.910156 C 337.402344 462.910156 333.285156 461.421875 330.035156 458.722656 L 254.410156 395.863281 C 254.410156 395.863281 254.40625 395.859375 254.40625 395.859375 Z M 227.480469 406.613281 " fill-opacity="1" fill-rule="nonzero"/><path fill="#250b48" d="M 497.996094 233.578125 C 494.78125 233.578125 492.171875 230.96875 492.171875 227.753906 L 492.171875 159.230469 C 492.171875 77.863281 425.964844 11.667969 344.585938 11.667969 L 343.640625 11.667969 C 262.261719 11.667969 196.058594 77.863281 196.058594 159.230469 L 196.058594 227.753906 C 196.058594 230.96875 193.449219 233.578125 190.234375 233.578125 C 187.015625 233.578125 184.40625 230.96875 184.40625 227.753906 L 184.40625 159.230469 C 184.40625 71.441406 255.839844 0.0195312 343.640625 0.0195312 L 344.585938 0.0195312 C 432.386719 0.0195312 503.820312 71.441406 503.820312 159.230469 L 503.820312 227.753906 C 503.820312 230.96875 501.214844 233.578125 497.996094 233.578125 Z M 497.996094 233.578125 " fill-opacity="1" fill-rule="nonzero"/><path fill="#250b48" d="M 466.59375 331.945312 L 374.730469 331.945312 C 371.515625 331.945312 368.90625 329.335938 368.90625 326.121094 C 368.90625 322.90625 371.515625 320.296875 374.730469 320.296875 L 466.59375 320.296875 C 471.285156 320.296875 475.546875 317.90625 477.992188 313.90625 C 480.433594 309.902344 480.617188 305.023438 478.472656 300.851562 L 469.332031 283.046875 C 467.863281 280.183594 468.992188 276.675781 471.855469 275.203125 C 474.71875 273.734375 478.226562 274.863281 479.695312 277.726562 L 488.839844 295.53125 C 492.847656 303.34375 492.511719 312.484375 487.929688 319.976562 C 483.355469 327.472656 475.378906 331.945312 466.59375 331.945312 Z M 466.59375 331.945312 " fill-opacity="1" fill-rule="nonzero"/><path fill="#6d6d6d" d="M 327.132812 312.84375 L 356.714844 312.84375 C 357.542969 312.84375 358.359375 312.925781 359.171875 313.085938 C 359.984375 313.246094 360.769531 313.488281 361.535156 313.804688 C 362.296875 314.121094 363.023438 314.507812 363.710938 314.96875 C 364.398438 315.425781 365.035156 315.949219 365.621094 316.53125 C 366.207031 317.117188 366.726562 317.753906 367.1875 318.441406 C 367.648438 319.128906 368.035156 319.855469 368.351562 320.617188 C 368.667969 321.382812 368.90625 322.171875 369.066406 322.980469 C 369.230469 323.792969 369.308594 324.609375 369.308594 325.4375 L 369.308594 328.207031 C 369.308594 329.035156 369.230469 329.855469 369.066406 330.664062 C 368.90625 331.476562 368.667969 332.261719 368.351562 333.027344 C 368.035156 333.792969 367.648438 334.515625 367.1875 335.203125 C 366.726562 335.890625 366.207031 336.527344 365.621094 337.113281 C 365.035156 337.699219 364.398438 338.21875 363.710938 338.679688 C 363.023438 339.136719 362.296875 339.527344 361.535156 339.84375 C 360.769531 340.160156 359.984375 340.398438 359.171875 340.558594 C 358.359375 340.722656 357.542969 340.800781 356.714844 340.800781 L 327.132812 340.800781 C 326.304688 340.800781 325.484375 340.722656 324.675781 340.558594 C 323.863281 340.398438 323.074219 340.160156 322.3125 339.84375 C 321.546875 339.527344 320.820312 339.136719 320.132812 338.679688 C 319.445312 338.21875 318.808594 337.699219 318.226562 337.113281 C 317.640625 336.527344 317.117188 335.890625 316.660156 335.203125 C 316.199219 334.515625 315.8125 333.792969 315.496094 333.027344 C 315.179688 332.261719 314.9375 331.476562 314.777344 330.664062 C 314.617188 329.855469 314.535156 329.035156 314.535156 328.207031 L 314.535156 325.4375 C 314.535156 324.609375 314.617188 323.792969 314.777344 322.980469 C 314.9375 322.171875 315.179688 321.382812 315.496094 320.617188 C 315.8125 319.855469 316.199219 319.128906 316.660156 318.441406 C 317.117188 317.753906 317.640625 317.117188 318.226562 316.53125 C 318.808594 315.949219 319.445312 315.425781 320.132812 314.96875 C 320.820312 314.507812 321.546875 314.121094 322.3125 313.804688 C 323.074219 313.488281 323.863281 313.246094 324.675781 313.085938 C 325.484375 312.925781 326.304688 312.84375 327.132812 312.84375 Z M 327.132812 312.84375 " fill-opacity="1" fill-rule="nonzero"/><path fill="#250b48" d="M 356.714844 346.625 L 327.128906 346.625 C 316.972656 346.625 308.710938 338.363281 308.710938 328.207031 L 308.710938 325.4375 C 308.710938 315.28125 316.972656 307.019531 327.128906 307.019531 L 356.714844 307.019531 C 366.871094 307.019531 375.132812 315.28125 375.132812 325.4375 L 375.132812 328.207031 C 375.132812 338.363281 366.871094 346.625 356.714844 346.625 Z M 327.132812 318.667969 C 323.398438 318.667969 320.359375 321.707031 320.359375 325.4375 L 320.359375 328.207031 C 320.359375 331.941406 323.398438 334.980469 327.132812 334.980469 L 356.714844 334.980469 C 360.449219 334.980469 363.484375 331.941406 363.484375 328.207031 L 363.484375 325.4375 C 363.484375 321.707031 360.449219 318.667969 356.714844 318.667969 Z M 327.132812 318.667969 " fill-opacity="1" fill-rule="nonzero"/></svg>