<svg xmlns="http://www.w3.org/2000/svg" xmlns:xlink="http://www.w3.org/1999/xlink" width="50" zoomAndPan="magnify" viewBox="0 0 37.5 37.499999" height="50" preserveAspectRatio="xMidYMid meet" version="1.0"><defs><clipPath id="7f31f9f91a"><path d="M 0.460938 0 L 36.730469 0 L 36.730469 37 L 0.460938 37 Z M 0.460938 0 " clip-rule="nonzero"/></clipPath></defs><g clip-path="url(#7f31f9f91a)"><path fill="#278d46" d="M 36.726562 18.042969 C 36.726562 28.003906 28.609375 36.082031 18.597656 36.082031 C 15.621094 36.085938 12.816406 35.398438 10.183594 34.023438 C 10.175781 34.027344 10.167969 34.027344 10.160156 34.03125 L 4.695312 36.292969 C 2.984375 37 1.261719 35.316406 1.9375 33.601562 L 3.910156 28.617188 C 2.789062 27.082031 1.933594 25.410156 1.347656 23.601562 C 0.757812 21.796875 0.464844 19.941406 0.46875 18.042969 C 0.46875 8.082031 8.585938 0.0078125 18.597656 0.0078125 C 28.609375 0.0078125 36.726562 8.082031 36.726562 18.042969 Z M 36.726562 18.042969 " fill-opacity="1" fill-rule="nonzero"/></g><path fill="#ffffff" d="M 34.375 18.042969 C 34.375 18.558594 34.351562 19.070312 34.300781 19.582031 C 34.25 20.09375 34.171875 20.601562 34.074219 21.105469 C 33.972656 21.609375 33.847656 22.109375 33.695312 22.601562 C 33.546875 23.089844 33.371094 23.574219 33.175781 24.050781 C 32.976562 24.523438 32.757812 24.988281 32.511719 25.441406 C 32.269531 25.894531 32.003906 26.335938 31.714844 26.765625 C 31.429688 27.191406 31.121094 27.605469 30.792969 28 C 30.464844 28.398438 30.121094 28.777344 29.753906 29.140625 C 29.390625 29.507812 29.007812 29.851562 28.605469 30.175781 C 28.207031 30.503906 27.792969 30.808594 27.363281 31.09375 C 26.933594 31.378906 26.492188 31.644531 26.035156 31.886719 C 25.578125 32.128906 25.113281 32.347656 24.636719 32.546875 C 24.160156 32.742188 23.671875 32.914062 23.179688 33.0625 C 22.683594 33.214844 22.183594 33.339844 21.675781 33.4375 C 21.167969 33.539062 20.660156 33.613281 20.144531 33.664062 C 19.628906 33.714844 19.113281 33.738281 18.597656 33.738281 C 18.082031 33.738281 17.566406 33.714844 17.050781 33.664062 C 16.539062 33.613281 16.027344 33.539062 15.519531 33.4375 C 15.011719 33.339844 14.511719 33.214844 14.019531 33.0625 C 13.523438 32.914062 13.039062 32.742188 12.558594 32.546875 C 12.082031 32.347656 11.617188 32.128906 11.160156 31.886719 C 10.707031 31.644531 10.261719 31.378906 9.832031 31.09375 C 9.402344 30.808594 8.988281 30.503906 8.589844 30.175781 C 8.191406 29.851562 7.808594 29.507812 7.441406 29.140625 C 7.078125 28.777344 6.730469 28.398438 6.402344 28 C 6.074219 27.605469 5.765625 27.191406 5.480469 26.765625 C 5.191406 26.335938 4.925781 25.894531 4.683594 25.441406 C 4.441406 24.988281 4.21875 24.523438 4.023438 24.050781 C 3.824219 23.574219 3.648438 23.089844 3.5 22.601562 C 3.351562 22.109375 3.226562 21.609375 3.125 21.105469 C 3.023438 20.601562 2.949219 20.09375 2.898438 19.582031 C 2.847656 19.070312 2.820312 18.558594 2.820312 18.042969 C 2.820312 17.527344 2.847656 17.015625 2.898438 16.503906 C 2.949219 15.992188 3.023438 15.484375 3.125 14.980469 C 3.226562 14.476562 3.351562 13.976562 3.5 13.488281 C 3.648438 12.996094 3.824219 12.511719 4.023438 12.035156 C 4.21875 11.5625 4.441406 11.097656 4.683594 10.644531 C 4.925781 10.191406 5.191406 9.75 5.480469 9.324219 C 5.765625 8.894531 6.074219 8.484375 6.402344 8.085938 C 6.730469 7.6875 7.078125 7.308594 7.441406 6.945312 C 7.808594 6.582031 8.191406 6.234375 8.589844 5.910156 C 8.988281 5.582031 9.402344 5.277344 9.832031 4.992188 C 10.261719 4.707031 10.707031 4.441406 11.160156 4.199219 C 11.617188 3.957031 12.082031 3.738281 12.558594 3.542969 C 13.039062 3.34375 13.523438 3.171875 14.019531 3.023438 C 14.511719 2.871094 15.011719 2.75 15.519531 2.648438 C 16.027344 2.546875 16.539062 2.472656 17.050781 2.421875 C 17.566406 2.371094 18.082031 2.347656 18.597656 2.347656 C 19.113281 2.347656 19.628906 2.371094 20.144531 2.421875 C 20.660156 2.472656 21.167969 2.546875 21.675781 2.648438 C 22.183594 2.75 22.683594 2.871094 23.179688 3.023438 C 23.671875 3.171875 24.160156 3.34375 24.636719 3.542969 C 25.113281 3.738281 25.578125 3.957031 26.035156 4.199219 C 26.492188 4.441406 26.933594 4.707031 27.363281 4.992188 C 27.792969 5.277344 28.207031 5.582031 28.605469 5.910156 C 29.007812 6.234375 29.390625 6.582031 29.753906 6.945312 C 30.121094 7.308594 30.464844 7.6875 30.792969 8.085938 C 31.121094 8.484375 31.429688 8.894531 31.714844 9.324219 C 32.003906 9.75 32.269531 10.191406 32.511719 10.644531 C 32.757812 11.097656 32.976562 11.5625 33.175781 12.035156 C 33.371094 12.511719 33.546875 12.996094 33.695312 13.488281 C 33.847656 13.976562 33.972656 14.476562 34.074219 14.980469 C 34.171875 15.484375 34.25 15.992188 34.300781 16.503906 C 34.351562 17.015625 34.375 17.527344 34.375 18.042969 Z M 34.375 18.042969 " fill-opacity="1" fill-rule="nonzero"/><path fill="#278d46" d="M 32.164062 18.042969 C 32.164062 18.929688 32.078125 19.808594 31.90625 20.675781 C 31.730469 21.546875 31.472656 22.390625 31.132812 23.207031 C 30.792969 24.027344 30.375 24.804688 29.878906 25.542969 C 29.382812 26.277344 28.820312 26.960938 28.191406 27.585938 C 27.5625 28.214844 26.875 28.773438 26.136719 29.265625 C 25.394531 29.757812 24.613281 30.175781 23.789062 30.515625 C 22.96875 30.851562 22.117188 31.109375 21.246094 31.28125 C 20.371094 31.453125 19.488281 31.542969 18.597656 31.542969 C 17.707031 31.542969 16.824219 31.453125 15.953125 31.28125 C 15.078125 31.109375 14.230469 30.851562 13.40625 30.515625 C 12.582031 30.175781 11.800781 29.757812 11.058594 29.265625 C 10.320312 28.773438 9.632812 28.214844 9.003906 27.585938 C 8.375 26.960938 7.8125 26.277344 7.316406 25.542969 C 6.820312 24.804688 6.40625 24.027344 6.0625 23.207031 C 5.722656 22.390625 5.464844 21.546875 5.292969 20.675781 C 5.117188 19.808594 5.03125 18.929688 5.03125 18.042969 C 5.03125 17.15625 5.117188 16.277344 5.292969 15.410156 C 5.464844 14.539062 5.722656 13.695312 6.0625 12.878906 C 6.40625 12.058594 6.820312 11.28125 7.316406 10.542969 C 7.8125 9.808594 8.375 9.125 9.003906 8.5 C 9.632812 7.871094 10.320312 7.3125 11.058594 6.820312 C 11.800781 6.328125 12.582031 5.910156 13.40625 5.570312 C 14.230469 5.234375 15.078125 4.976562 15.953125 4.804688 C 16.824219 4.632812 17.707031 4.542969 18.597656 4.542969 C 19.488281 4.542969 20.371094 4.632812 21.246094 4.804688 C 22.117188 4.976562 22.96875 5.234375 23.789062 5.570312 C 24.613281 5.910156 25.394531 6.328125 26.136719 6.820312 C 26.875 7.3125 27.5625 7.871094 28.191406 8.5 C 28.820312 9.125 29.382812 9.808594 29.878906 10.542969 C 30.375 11.28125 30.792969 12.058594 31.132812 12.878906 C 31.472656 13.695312 31.730469 14.539062 31.90625 15.410156 C 32.078125 16.277344 32.164062 17.15625 32.164062 18.042969 Z M 32.164062 18.042969 " fill-opacity="1" fill-rule="nonzero"/><path fill="#ffffff" d="M 16.855469 13.632812 L 16.328125 11.414062 C 16.265625 11.160156 16.15625 10.925781 15.996094 10.71875 C 15.835938 10.507812 15.636719 10.34375 15.40625 10.214844 C 15.171875 10.089844 14.925781 10.019531 14.660156 10 C 14.394531 9.980469 14.140625 10.015625 13.890625 10.101562 L 12.671875 10.539062 C 12.265625 10.6875 11.945312 10.941406 11.71875 11.3125 C 11.492188 11.679688 11.40625 12.078125 11.460938 12.507812 C 11.882812 15.9375 13.835938 24.234375 22.820312 26.058594 C 23.183594 26.132812 23.539062 26.101562 23.882812 25.960938 C 24.230469 25.824219 24.507812 25.605469 24.71875 25.300781 L 25.417969 24.296875 C 25.558594 24.09375 25.65625 23.875 25.707031 23.632812 C 25.757812 23.394531 25.761719 23.152344 25.71875 22.914062 C 25.675781 22.671875 25.585938 22.449219 25.453125 22.242188 C 25.320312 22.035156 25.152344 21.863281 24.949219 21.722656 L 24.9375 21.714844 L 23.402344 20.675781 C 23.058594 20.445312 22.683594 20.335938 22.269531 20.355469 C 21.855469 20.375 21.492188 20.515625 21.171875 20.777344 C 20.855469 21.039062 20.492188 21.179688 20.082031 21.199219 C 19.671875 21.21875 19.296875 21.117188 18.957031 20.890625 C 18.023438 20.261719 16.757812 19.222656 15.9375 17.785156 C 15.746094 17.453125 15.667969 17.101562 15.695312 16.71875 C 15.726562 16.339844 15.863281 16.003906 16.101562 15.707031 L 16.496094 15.21875 C 16.875 14.75 16.996094 14.21875 16.855469 13.632812 Z M 16.855469 13.632812 " fill-opacity="1" fill-rule="nonzero"/></svg>