<svg xmlns="http://www.w3.org/2000/svg" xmlns:xlink="http://www.w3.org/1999/xlink" width="50" zoomAndPan="magnify" viewBox="0 0 37.5 37.499999" height="50" preserveAspectRatio="xMidYMid meet" version="1.0"><defs><clipPath id="adb09dcf43"><path d="M 0 21 L 37.007812 21 L 37.007812 37.007812 L 0 37.007812 Z M 0 21 " clip-rule="nonzero"/></clipPath></defs><g clip-path="url(#adb09dcf43)"><path fill="#2988bc" d="M 24.738281 21.589844 L 12.269531 21.589844 L 12.207031 21.601562 C 8.792969 22.109375 5.816406 23.03125 3.664062 24.246094 C 1.5625 25.4375 0 27.070312 0 29.078125 C 0 30.371094 0.660156 31.511719 1.660156 32.460938 C 2.660156 33.40625 4.058594 34.214844 5.714844 34.878906 C 9.03125 36.207031 13.554688 37.007812 18.503906 37.007812 C 23.453125 37.007812 27.972656 36.207031 31.292969 34.878906 C 32.945312 34.214844 34.347656 33.40625 35.347656 32.460938 C 36.347656 31.511719 37.007812 30.371094 37.007812 29.078125 C 37.007812 27.339844 35.832031 25.886719 34.191406 24.773438 C 32.523438 23.644531 30.210938 22.734375 27.511719 22.113281 C 26.648438 21.914062 25.742188 21.742188 24.800781 21.601562 Z M 24.738281 21.589844 " fill-opacity="1" fill-rule="nonzero"/></g><path fill="#ff4343" d="M 17.921875 29.738281 C 17.921875 29.738281 17.921875 29.738281 18.503906 29.078125 C 19.085938 29.738281 19.085938 29.738281 19.085938 29.738281 C 18.753906 30.03125 18.253906 30.03125 17.921875 29.738281 Z M 17.921875 29.738281 " fill-opacity="1" fill-rule="nonzero"/><path fill="#ff4343" d="M 17.921875 29.738281 L 18.503906 29.078125 L 19.085938 29.738281 L 19.085938 29.734375 L 19.09375 29.730469 L 19.121094 29.707031 L 19.210938 29.625 C 19.292969 29.550781 19.410156 29.445312 19.558594 29.308594 C 19.851562 29.035156 20.273438 28.632812 20.777344 28.132812 C 21.785156 27.125 23.128906 25.703125 24.476562 24.035156 C 25.820312 22.371094 27.179688 20.441406 28.210938 18.425781 C 29.234375 16.417969 29.957031 14.261719 29.957031 12.160156 C 29.957031 5.5 24.882812 0 18.503906 0 C 12.125 0 7.050781 5.5 7.050781 12.160156 C 7.050781 14.261719 7.773438 16.417969 8.796875 18.425781 C 9.824219 20.441406 11.1875 22.371094 12.53125 24.035156 C 13.878906 25.703125 15.222656 27.125 16.230469 28.132812 C 16.734375 28.632812 17.152344 29.035156 17.449219 29.308594 C 17.597656 29.445312 17.714844 29.550781 17.792969 29.625 L 17.886719 29.707031 L 17.914062 29.730469 Z M 17.921875 29.738281 " fill-opacity="1" fill-rule="nonzero"/><path fill="#ffffff" d="M 18.503906 5.285156 C 15.582031 5.285156 13.214844 7.652344 13.214844 10.574219 C 13.214844 13.492188 15.582031 15.859375 18.503906 15.859375 C 21.421875 15.859375 23.789062 13.492188 23.789062 10.574219 C 23.789062 7.652344 21.421875 5.285156 18.503906 5.285156 Z M 18.503906 5.285156 " fill-opacity="1" fill-rule="nonzero"/></svg>